<svg xmlns="http://www.w3.org/2000/svg" viewBox="0 0 94.99 98.46"><defs><style>.cls-1{fill:#4d4d4d;}.cls-2{fill:#9a3d68;}</style></defs><g id="Capa_2" data-name="Capa 2"><g id="Capa_1-2" data-name="Capa 1"><path class="cls-1" d="M95,0c0,.84,0,.53,0,.84q0,12.65,0,25.29c0,.13,0,.26,0,.39,0,.48-.11.56-.6.6H64c0-.4,0-.72,0-1.07,0-6.28-.08-12.58-.08-18.86,0-2.08,0-4.15,0-6.23,0-.32,0-.61,0-1Z"/><path class="cls-2" d="M59.1,98.46a42.47,42.47,0,0,1-26.34-8.9A40.94,40.94,0,0,1,19,70.16,41.71,41.71,0,0,1,16.7,59.58c-.2-2.5-.19-5-.23-7.53,0-2,0-4.06,0-6.08,0-1.07,0-1.08-1.05-1.08-7.1,0,.74,0-6.37,0a13,13,0,0,1-3-.35A7.49,7.49,0,0,1,.23,38,29.33,29.33,0,0,1,0,34.58C0,28,0,21.5,0,15c0-.21,0-.41,0-.62,0-.45,0-.68,0-.68H16.4c0-.41.06-.73.06-1.06V.14C26.78.14,49.51.08,59.82.08c0,2.65,0,3.2,0,5.84.06.84-1.19,1.48-1.92,1.58-1,.13-10.51,1.18-16.55,7a22.7,22.7,0,0,0-5.84,12.71c-.27,2.21-.41,4.44-.48,6.67a18.22,18.22,0,0,0,.39,3.35,4.62,4.62,0,0,1-.62,3.46c-1.05,1.58-2,3.21-3.13,4.75a16,16,0,0,1-2,2.14A7.82,7.82,0,0,0,28,49.76a2.46,2.46,0,0,0,.51,3.16,5.4,5.4,0,0,0,2,1.26,1.8,1.8,0,0,1,.58,3.13,5.38,5.38,0,0,1-.66.52,2.43,2.43,0,0,0-.58,3,1.89,1.89,0,0,0,1,.85c.71.3,1.41.61,2.11.93.25.12.48.27.86.47a5.22,5.22,0,0,1-.74.4,9.44,9.44,0,0,1-1,.29A1.44,1.44,0,0,0,30.8,65a4.09,4.09,0,0,0-.06,1,1.54,1.54,0,0,0,1.11,1.5c.44.14.89.26,1.32.41.69.25.82.51.67,1.23s-.28,1.25-.39,1.88A6.26,6.26,0,0,0,34,74.72a5.15,5.15,0,0,0,3.72,3,35.93,35.93,0,0,0,9.69.9c1.79-.09,3.58-.32,5.36-.49l5.35-.54c.61-.07,1.23-.1,1.84-.18a6.63,6.63,0,0,1,5.54,2.1c1,1,1.94,2.05,2.9,3.09L82.21,97.42c.19.21.64.68.9,1"/><path class="cls-1" d="M94.94,31.42c0,.34,0,.59,0,.84q0,28.5,0,57c0,3.18-2.85,6.62-3.79,7.85-1.44,2-1.26,1.51-3.91-.71-.27-.23-1.42-1.36-1.63-1.58l-3.88-4.17L66.1,73.81a7.79,7.79,0,0,1-2.18-5.51c0-12.94,0-22.79,0-35.74V31.4l30.07,0Z"/></g></g></svg>