<svg xmlns="http://www.w3.org/2000/svg" viewBox="0 0 243.98 63.14"><defs><style>.cls-1{fill:#4d4d4d;}.cls-2{fill:#9a3d68;}.cls-3{fill:#818282;}</style></defs><g id="Capa_2" data-name="Capa 2"><g id="Capa_1-2" data-name="Capa 1"><path class="cls-1" d="M60.9,0c0,.54,0,.34,0,.54V16.76a1.92,1.92,0,0,1,0,.24c0,.31-.07.37-.38.39H41c0-.26,0-.46,0-.68,0-4,0-8.07,0-12.1,0-1.33,0-2.66,0-4V0Z"/><path class="cls-2" d="M37.9,63.14A27.24,27.24,0,0,1,21,57.43,26.19,26.19,0,0,1,12.16,45a26.73,26.73,0,0,1-1.45-6.78c-.13-1.61-.12-3.22-.15-4.83,0-1.3,0-2.6,0-3.9,0-.69,0-.69-.68-.69-4.55,0,.47,0-4.08,0a8.17,8.17,0,0,1-1.91-.22A4.8,4.8,0,0,1,.15,24.34,17.44,17.44,0,0,1,0,22.17Q0,15.89,0,9.59c0-.13,0-.26,0-.39V8.76H10.52c0-.26,0-.47,0-.68,0-2.47,0-4.93,0-7.4,0-.23,0-.23,0-.59l27.8,0c0,1.7,0,2.05,0,3.75,0,.54-.76,1-1.23,1-.66.08-6.75.76-10.61,4.45a14.52,14.52,0,0,0-3.75,8.16c-.17,1.42-.27,2.85-.31,4.27a11.16,11.16,0,0,0,.25,2.15,3,3,0,0,1-.4,2.22c-.67,1-1.3,2.06-2,3.05a10.26,10.26,0,0,1-1.27,1.37,5.18,5.18,0,0,0-1.12,1.43,1.58,1.58,0,0,0,.33,2,3.47,3.47,0,0,0,1.28.82,1.15,1.15,0,0,1,.37,2,3.47,3.47,0,0,1-.42.34A1.56,1.56,0,0,0,19.11,39a1.28,1.28,0,0,0,.62.53c.46.2.91.4,1.35.61.16.07.31.17.55.3a3.76,3.76,0,0,1-.47.25,5,5,0,0,1-.66.19.92.92,0,0,0-.75.82,2.64,2.64,0,0,0,0,.63,1,1,0,0,0,.72,1l.84.27c.45.16.53.32.43.79s-.18.8-.25,1.2a4,4,0,0,0,.34,2.36,3.31,3.31,0,0,0,2.39,1.89,23.16,23.16,0,0,0,6.21.57c1.15-.05,2.29-.2,3.44-.31l3.43-.35c.39,0,.79-.06,1.18-.11A4.22,4.22,0,0,1,42,51c.65.62,1.24,1.31,1.86,2l8.87,9.54.58.62"/><path class="cls-1" d="M60.89,20.15c0,.21,0,.38,0,.54q0,18.27,0,36.55c0,2-1.83,4.24-2.43,5-.93,1.29-.82,1-2.51-.45-.18-.15-.91-.87-1.05-1l-2.48-2.67-10-10.8A5,5,0,0,1,41,43.8c0-8.3,0-14.62,0-22.92v-.74c6.18,0,13.1,0,19.28,0Z"/><path class="cls-1" d="M71.05,1.55H87.78V4h-7V24.88a21.14,21.14,0,0,1-2.64,0V4c-.32,0-.57,0-.81,0H71.86a7.4,7.4,0,0,1-.81-.08Z"/><path class="cls-1" d="M148.13,8.32l-.48.63-6.78,9.32c-.11.14-.21.3-.33.43a.39.39,0,0,1-.64,0,3.61,3.61,0,0,1-.33-.44q-3.39-4.65-6.79-9.31c-.14-.21-.29-.4-.47-.63-.24.23-.16.49-.16.71V24.53c0,.23,0,.45,0,.71h-2.7V1.65a1.19,1.19,0,0,1,1.51.57c2.92,4,5.87,8,8.81,12,.14.19.3.38.5.64.22-.27.39-.48.54-.69,2.94-4,5.89-8,8.81-12a1.1,1.1,0,0,1,1.36-.54c.15.57.16,22.94,0,23.66h-2.6V8.39Z"/><path class="cls-1" d="M198.45,8.29h-2.53a2.38,2.38,0,0,1-.18-.3,6.47,6.47,0,0,0-4.88-3.94,10.85,10.85,0,0,0-5.6.12,8.45,8.45,0,0,0-5.81,6.09,11.05,11.05,0,0,0,.26,7.16A8.28,8.28,0,0,0,187.16,23a10.45,10.45,0,0,0,4-.36,7.54,7.54,0,0,0,5.64-6.27c.07-.35.1-.7.16-1.14-.34,0-.6-.06-.86-.06h-8V13c.47-.16,10.07-.22,11.37-.06,0,.49,0,1,0,1.52a12.49,12.49,0,0,1-1,4.64,10,10,0,0,1-6.4,5.91,12.73,12.73,0,0,1-7.84,0,10.79,10.79,0,0,1-7.23-7A13.36,13.36,0,0,1,177,9a10.88,10.88,0,0,1,9.15-7.57,12.52,12.52,0,0,1,7.39,1,8.86,8.86,0,0,1,4.89,5.4,1.45,1.45,0,0,1,.07.26A.85.85,0,0,1,198.45,8.29Z"/><path class="cls-1" d="M224.86,7.54c.35,5.88.22,11.75.25,17.72h-2.59c-.16-.6-.18-22.94,0-23.63a1.05,1.05,0,0,1,1.28.42q7.18,8.4,14.41,16.77a1.47,1.47,0,0,0,.59.46c-.08-2.94-.19-5.88-.23-8.82s0-5.86,0-8.84h2.65V25.2c-.55.21-.87,0-1.2-.41Q232.78,16.41,225.55,8c-.16-.19-.33-.36-.49-.54Z"/><path class="cls-1" d="M172.9,25.25c-.62-1.32-1.24-2.61-1.85-3.9-.23-.47-.47-.94-.67-1.42a.76.76,0,0,0-.83-.52c-1.78,0-3.55,0-5.32,0s-3.6,0-5.39,0a.87.87,0,0,0-.93.6c-.73,1.59-1.5,3.16-2.23,4.75a.76.76,0,0,1-.82.53c-.75,0-1.49,0-2.37,0a7.89,7.89,0,0,1,.31-.88Q154.89,20,157,15.53l6.21-13.2.12-.25a1,1,0,0,1,1.39-.52,1.14,1.14,0,0,1,.39.53c1.06,2.26,2.12,4.53,3.17,6.79q3.62,7.76,7.23,15.51a7.71,7.71,0,0,1,.3.86ZM164.25,6c-.4.42-4.86,10.29-5,11a96.15,96.15,0,0,0,9.9,0Z"/><path class="cls-1" d="M206.35,14.2c0,2.9,0,5.68,0,8.54h11.35c0,.21.05.34.05.47,0,.65,0,1.31,0,1.94-.56.17-13.33.19-14.1,0V1.65c.54-.13,13.1-.18,14,0V3.89c-.24,0-.51,0-.77,0h-10.4a53.78,53.78,0,0,0-.06,7.85h10.46a14.88,14.88,0,0,1,0,2.41Z"/><path class="cls-1" d="M90.73,1.59H93.4v.85c0,4.8,0,9.59,0,14.39a9.27,9.27,0,0,0,.28,2.29,4.6,4.6,0,0,0,4.22,3.6,7.73,7.73,0,0,0,2.71-.1,5.08,5.08,0,0,0,4.16-4.76,11.34,11.34,0,0,0,0-1.16V1.59h2.61c0,.2.06.37.06.55,0,5.09,0,10.19,0,15.28a8.57,8.57,0,0,1-.35,2.35,7.14,7.14,0,0,1-5.55,5.16A10.6,10.6,0,0,1,96,24.81a7,7,0,0,1-5.08-5.6,11.4,11.4,0,0,1-.2-2.1q0-7.38,0-14.74C90.69,2.13,90.71,1.88,90.73,1.59Z"/><path class="cls-1" d="M123,25.24h-2.59V1.57h2.51l.08.09a.07.07,0,0,1,0,.05,4.93,4.93,0,0,1,0,.54q0,11.39,0,22.77A1.06,1.06,0,0,1,123,25.24Z"/><path class="cls-3" d="M98.55,46.63V33.79c.22,0,.42,0,.61,0H103A5.72,5.72,0,0,1,108.87,39a9,9,0,0,1-.23,3.5,5.55,5.55,0,0,1-5.26,4.17c-1.52.1-3,0-4.57,0A1.68,1.68,0,0,1,98.55,46.63Zm.85-.7c1.29,0,2.51,0,3.73,0a4.79,4.79,0,0,0,4.55-3.23,7.19,7.19,0,0,0,.21-4.28A4.9,4.9,0,0,0,103,34.51h-3c-.18,0-.36,0-.58.05Z"/><path class="cls-3" d="M183.25,33.7c1.79,0,3.58,0,5.33.17a5.23,5.23,0,0,1,4.69,4.26,7.77,7.77,0,0,1-.24,4.95A5.43,5.43,0,0,1,188,46.67c-1.51.11-3,0-4.56,0a1,1,0,0,1-.18,0C183.08,46.06,183.07,34.46,183.25,33.7ZM184,45.93c1.32,0,2.56,0,3.8,0a4.66,4.66,0,0,0,4.37-3,6.92,6.92,0,0,0,.35-4.4,4.9,4.9,0,0,0-5-4.05h-2.84c-.2,0-.4,0-.64,0Z"/><path class="cls-3" d="M81.5,41.73c.51.81,1,1.62,1.54,2.43l1.58,2.47a1,1,0,0,1-1.32-.49c-.78-1.3-1.65-2.56-2.44-3.85a1,1,0,0,0-1-.52c-1,0-2,0-3,0a6.91,6.91,0,0,0-.69.06c-.06,1.61,0,3.2,0,4.82l-.75,0V33.78l.64,0c1.5,0,3,0,4.49,0a3.9,3.9,0,0,1,3.89,3.51,3.85,3.85,0,0,1-1.76,3.94A10,10,0,0,1,81.5,41.73Zm-5.23-.84a.7.7,0,0,0,.23.09c1.57,0,3.13,0,4.7,0A2.27,2.27,0,0,0,82.85,40,3.34,3.34,0,0,0,83.66,38a3.19,3.19,0,0,0-3.14-3.46c-1.2.06-2.4,0-3.6,0-.2,0-.4,0-.65,0Z"/><path class="cls-3" d="M126.2,40.38A6.59,6.59,0,0,1,124,45.26a5.64,5.64,0,0,1-7.57.17,6.91,6.91,0,0,1,.3-10.64,5.65,5.65,0,0,1,7.68.81A7,7,0,0,1,126.2,40.38Zm-.88-.29a6,6,0,0,0-1.92-4.36,4.74,4.74,0,0,0-6.62.08,6.24,6.24,0,0,0-.22,8.63,4.83,4.83,0,0,0,7.44-.35A6.16,6.16,0,0,0,125.32,40.09Z"/><path class="cls-3" d="M136.76,40.16a6.77,6.77,0,0,1,2.34-5.1,5.61,5.61,0,0,1,7.57.1,6.93,6.93,0,0,1,.44,9.71,5.73,5.73,0,0,1-8.84-.32A7,7,0,0,1,136.76,40.16Zm.86,0a6.11,6.11,0,0,0,1.85,4.48,4.8,4.8,0,0,0,6.58.11,6.24,6.24,0,0,0,.32-8.77,4.76,4.76,0,0,0-7-.07A6,6,0,0,0,137.62,40.18Z"/><path class="cls-3" d="M160.61,41.15h-2.89l0-.64h3.53a40.3,40.3,0,0,1,.07,6.13,1.25,1.25,0,0,1-.3,0,1.58,1.58,0,0,1-.38,0V44.88c-.35,0-.48.25-.65.4a5.68,5.68,0,0,1-3,1.45,5.42,5.42,0,0,1-4.84-1.68,6.89,6.89,0,0,1-.4-9.32,5.86,5.86,0,0,1,7.16-1.46A4.66,4.66,0,0,1,161,36.41l-.62.42a1.69,1.69,0,0,1-.2-.23c-1.28-2.38-5.11-3-7.34-.88a6.21,6.21,0,0,0,.54,9.32,4.69,4.69,0,0,0,5.33.32,7.19,7.19,0,0,0,.86-.58,2.18,2.18,0,0,0,1.08-2.28A8.53,8.53,0,0,1,160.61,41.15Z"/><path class="cls-3" d="M209.54,36.44l-.65.38c-.1-.14-.2-.26-.28-.38a4.5,4.5,0,0,0-4.24-2,4.68,4.68,0,0,0-3.75,2.17,6.24,6.24,0,0,0,.73,8,4.92,4.92,0,0,0,6.46.42l.48-.39a2,2,0,0,0,.91-2,11.41,11.41,0,0,1,0-1.44h-2.83c-.14-.34-.25-.65.19-.67,1.07,0,2.15,0,3.2,0a40.88,40.88,0,0,1,.05,6.18l-.59,0V44.88c-.38,0-.5.23-.68.39a5.67,5.67,0,0,1-3.06,1.47,5.38,5.38,0,0,1-4.1-1.09,6.9,6.9,0,0,1-.68-10.36,5.84,5.84,0,0,1,6.72-1A4.6,4.6,0,0,1,209.54,36.44Z"/><path class="cls-3" d="M225,46.67H224l5.48-12.9h.78c1.8,4.28,3.61,8.56,5.45,12.9h-.88c-.13-.3-.28-.61-.41-.92-.41-1-.82-1.91-1.21-2.87a.64.64,0,0,0-.65-.48q-2.7,0-5.4,0a.58.58,0,0,0-.62.43c-.44,1.06-.9,2.12-1.35,3.18Zm7.76-5A49.45,49.45,0,0,0,229.83,35c-1,2.22-1.91,4.43-2.85,6.73Z"/><path class="cls-3" d="M167,46.68h-.92c1.85-4.33,3.66-8.61,5.49-12.9l.76,0,5.46,12.92H177a5.24,5.24,0,0,1-.28-.58q-.69-1.59-1.35-3.18a.67.67,0,0,0-.71-.5c-1.75,0-3.51,0-5.26,0a.71.71,0,0,0-.76.54C168.11,44.17,167.58,45.4,167,46.68Zm7.76-5A52.58,52.58,0,0,0,172,35a58.74,58.74,0,0,0-2.77,6.68Z"/><path class="cls-3" d="M90.68,33.77h.77l5.45,12.9H96l-1.8-4.22c-.21,0-.41,0-.61,0-1.69,0-3.37,0-5,0a.84.84,0,0,0-.91.64c-.41,1-.87,2.08-1.31,3.11-.07.17-.15.34-.24.52H85.2C87,42.32,88.86,38.05,90.68,33.77Zm-2.44,7.88a30.16,30.16,0,0,0,5.67-.08l-2.76-6.64A50,50,0,0,0,88.24,41.65Z"/><path class="cls-3" d="M220.36,46.64l-.35.06-.51,0c0-.81,0-1.61,0-2.4V34.53h-4.7l0-.66c.53-.15,9.56-.18,10.32,0v.67h-4.7Z"/><path class="cls-3" d="M237.4,33.78h.79v12.1a14.79,14.79,0,0,0,2,0h3.33a1.69,1.69,0,0,1,.45,0c.06.06,0,.36,0,.43,0,.26,0,.31-.26.31H237.4Z"/><path class="cls-3" d="M129.2,45.93h7.7v.73h-8.54V33.79a2.63,2.63,0,0,1,.36,0c.11,0,.22,0,.42,0v4c0,1.36,0,2.72,0,4.08S129.09,44.54,129.2,45.93Z"/><path class="cls-3" d="M163.71,33.78h.71c.14.5.18,11.85.05,12.87h-.76Z"/><path class="cls-3" d="M213,46.67h-.73V33.78H213Z"/><path class="cls-3" d="M195.84,33.78h.59c.15.49.21,11.44.07,12.87l-.63.05C195.68,46.15,195.66,34.49,195.84,33.78Z"/><path class="cls-3" d="M111.18,33.79a2.68,2.68,0,0,1,.35,0,3.29,3.29,0,0,1,.38,0V46.66c-.15,0-.26,0-.37,0a2.63,2.63,0,0,1-.36,0Z"/><path class="cls-3" d="M163.47,31.5c.32-.45.55-.73.73-1.05a.85.85,0,0,1,1.1-.44,5.54,5.54,0,0,1-1.15,1.55A2.65,2.65,0,0,1,163.47,31.5Z"/><path class="cls-3" d="M138.12,52.25c.44-.21.66,0,.86.33q1.67,2.88,3.34,5.74l.45.72c.18-.27.31-.45.42-.63,1.12-1.93,2.25-3.86,3.37-5.8.19-.33.38-.58.85-.36,0,.18,0,.39,0,.59V61c0,.14,0,.28,0,.42,0,.3-.22.31-.55.2,0-1.3,0-2.63,0-4v-4c-.36.09-.41.34-.52.51l-3,5.08c-.1.16-.18.32-.29.47s-.44.3-.65,0-.52-.87-.77-1.3l-2.45-4.18c-.11-.2-.24-.38-.43-.67a8.26,8.26,0,0,0-.1,2.07c0,.7,0,1.39,0,2.08v4l-.57,0Z"/><path class="cls-3" d="M126.33,57.24a13.45,13.45,0,0,1-.26,1.41c-.13.44-.33.86-.53,1.35l1.53,1.61a.71.71,0,0,1-.93-.15c-.3-.32-.61-.62-1-1-.22.19-.4.35-.59.5a3.6,3.6,0,0,1-4,.54,2.33,2.33,0,0,1-.89-3.7,8.18,8.18,0,0,1,1-1c.17-.15.35-.28.55-.44-.3-.38-.59-.72-.84-1.07a1.91,1.91,0,0,1,.33-2.86,2.49,2.49,0,0,1,3.22.27,1.64,1.64,0,0,1,.08,2.05A7.73,7.73,0,0,1,123,55.88c-.24.22-.51.39-.82.63l2.91,3a3.19,3.19,0,0,0,.64-1.6,3.66,3.66,0,0,1,.12-.61c0-.1.21-.15.32-.22Zm-4.64-.43a4.76,4.76,0,0,0-1.64,1.53,1.85,1.85,0,0,0,.55,2.56,3,3,0,0,0,4.15-.89Zm.13-.62a17.88,17.88,0,0,0,1.66-1.41,1.31,1.31,0,0,0-.6-2.17,1.85,1.85,0,0,0-1.77.27,1.37,1.37,0,0,0-.39,1.89C121,55.23,121.39,55.64,121.82,56.19Z"/><path class="cls-3" d="M75.68,57.08a5.07,5.07,0,0,1,1.47-3.74,4.17,4.17,0,0,1,6,0,5.13,5.13,0,0,1,.21,7.06,4.24,4.24,0,0,1-6.7-.44A4.84,4.84,0,0,1,75.68,57.08Zm4.47-4.43a3.43,3.43,0,0,0-2.59,1.11A4.63,4.63,0,0,0,77.4,60a3.59,3.59,0,0,0,5.43.06,4.63,4.63,0,0,0-.09-6.28A3.43,3.43,0,0,0,80.15,52.65Z"/><path class="cls-3" d="M102.25,61.73c-.64-.09-.64-.09-.88-1-.13.11-.26.19-.38.29a3.59,3.59,0,0,1-2.9.82,2.12,2.12,0,0,1-1.82-1.74,1.73,1.73,0,0,1,.64-1.72,2.61,2.61,0,0,1,1.71-.64c.74,0,1.47.09,2.2.16a4,4,0,0,1,.46.08,2.14,2.14,0,0,0-2.66-2.8c-.54.17-1.06.41-1.65.64l-.2-.27a4,4,0,0,1,3.27-.84A2.38,2.38,0,0,1,102,57.14c0,1,0,2,0,3,0,.41-.08.83.26,1.17C102.3,61.35,102.25,61.54,102.25,61.73ZM99.33,58a12.57,12.57,0,0,0-1.41.3,1.42,1.42,0,0,0-1.09,1.49A1.64,1.64,0,0,0,98,61.31a2.94,2.94,0,0,0,2.38-.37,1.85,1.85,0,0,0,.93-2.3.62.62,0,0,0-.39-.31C100.43,58.19,99.89,58.11,99.33,58Z"/><path class="cls-3" d="M187.9,54.64a3.5,3.5,0,0,1,3.35,4.14,4.08,4.08,0,0,1-.54,1.47,3.29,3.29,0,0,1-5.74-.11,3.65,3.65,0,0,1,.21-4.11A3.06,3.06,0,0,1,187.9,54.64Zm-2.84,3.61a3.08,3.08,0,0,0,1.25,2.57,2.6,2.6,0,0,0,3.09,0,3.25,3.25,0,0,0-.11-5.26,2.5,2.5,0,0,0-3.07.19A3.21,3.21,0,0,0,185.06,58.25Z"/><path class="cls-3" d="M207.59,58a10.08,10.08,0,0,0-.07-1.28,2,2,0,0,0-2.38-1.61,4.27,4.27,0,0,0-1,.27,8.91,8.91,0,0,0-.93.46c-.25-.15-.28-.31,0-.47a3.91,3.91,0,0,1,3.23-.61,2.42,2.42,0,0,1,1.76,2.52c0,1,0,2,0,3,0,.36-.07.74.25,1,.06.06,0,.25,0,.38-.6.07-.6.07-.88-.94l-.38.28a3.54,3.54,0,0,1-2.77.83,2.12,2.12,0,0,1-1.95-1.76,1.93,1.93,0,0,1,1.43-2.16,5.33,5.33,0,0,1,2.66-.13C206.87,57.83,207.18,57.91,207.59,58Zm-2.07,0a12.45,12.45,0,0,0-1.43.32A1.43,1.43,0,0,0,203,59.74a1.7,1.7,0,0,0,1.12,1.53,2.65,2.65,0,0,0,1.9-.05,2,2,0,0,0,1.57-2.4c0-.27-.11-.44-.38-.49Z"/><path class="cls-3" d="M158.19,61.69c-.65,0-.65,0-.87-1a4.39,4.39,0,0,0-.39.27,3.6,3.6,0,0,1-2.9.82,2.1,2.1,0,0,1-1.49-.91,1.81,1.81,0,0,1,.54-2.7,3.32,3.32,0,0,1,1.48-.48,15.63,15.63,0,0,1,2.26.17c.14,0,.27,0,.4.06a2.14,2.14,0,0,0-2.66-2.8c-.55.16-1.07.4-1.66.63-.15-.09-.27-.24,0-.42a3.86,3.86,0,0,1,3.29-.61,2.42,2.42,0,0,1,1.73,2.48c0,1,0,1.93,0,2.9,0,.41-.07.83.26,1.17C158.24,61.37,158.19,61.53,158.19,61.69ZM155.26,58a12.45,12.45,0,0,0-1.43.32,1.44,1.44,0,0,0-1.09,1.43,1.73,1.73,0,0,0,1.18,1.56,2.74,2.74,0,0,0,1.83-.08,2,2,0,0,0,1.58-2.39c0-.27-.11-.44-.38-.5Z"/><path class="cls-3" d="M234,60.7l-.48.39a3.66,3.66,0,0,1-2.94.71,2.06,2.06,0,0,1-1.69-1.86A1.87,1.87,0,0,1,230.09,58a5,5,0,0,1,2.85-.21c.31,0,.62.13.92.2a2.12,2.12,0,0,0-2.35-2.87,14.24,14.24,0,0,0-2,.67l-.15-.26a3.93,3.93,0,0,1,3.45-.77A2.26,2.26,0,0,1,234.53,57c0,1,0,2.07,0,3.11a1.61,1.61,0,0,0,.24,1.18c.07.07,0,.25,0,.38C234.19,61.7,234.17,61.67,234,60.7Zm0-1.38c0-.9,0-.93-.83-1.11a2.83,2.83,0,0,0-.4-.08,4.17,4.17,0,0,0-2.49.26,1.43,1.43,0,0,0-.76,1.9,1.65,1.65,0,0,0,1.13,1,2.94,2.94,0,0,0,2.43-.41A1.58,1.58,0,0,0,234,59.32Z"/><path class="cls-3" d="M218.54,60.07l.46.16a1.84,1.84,0,0,1-.06.23,3.15,3.15,0,0,1-3.64,1.27,3.51,3.51,0,0,1-2.48-3.52,3.38,3.38,0,0,1,2.44-3.45,3.46,3.46,0,0,1,2.37.14A2.64,2.64,0,0,1,219,56.14l-.5.21a1.64,1.64,0,0,1-.18-.16,2.67,2.67,0,0,0-4.68.89,3.16,3.16,0,0,0,.56,3.25,2.65,2.65,0,0,0,4.2,0Z"/><path class="cls-3" d="M165.28,58.68,164,60.37c-.28.36-.56.73-.85,1.09s-.2.22-.77.2c.42-.63.88-1.16,1.3-1.71l1.31-1.7-2.61-3.38a.58.58,0,0,1,.83.23c.52.68,1.05,1.35,1.57,2l.53.64a3.45,3.45,0,0,0,.38-.39l1.74-2.23c.29-.36.29-.36.88-.3l-2.62,3.41,2.58,3.34c-.42.25-.61,0-.81-.21l-1.61-2.07C165.66,59.13,165.51,59,165.28,58.68Z"/><path class="cls-3" d="M196.15,54.68a7.21,7.21,0,0,1,.06-.72,5.29,5.29,0,0,1,.31-1.2,1.89,1.89,0,0,1,2.72-.75c.15.09.15.09.06.49-.68-.23-1.39-.48-2,.14a2.48,2.48,0,0,0-.53,2.07l1.89.09c.12.28,0,.37-.19.38s-.6,0-.9,0-.49,0-.79,0c0,.31-.05.55-.05.8,0,1.61,0,3.23,0,4.84a5.24,5.24,0,0,1,0,.56c0,.29-.23.29-.52.16V55.5c-.28-.48-.82-.1-1-.64Z"/><path class="cls-3" d="M241.92,61.19l.1.48a9.41,9.41,0,0,1-1.12.13,1.11,1.11,0,0,1-1.17-1.11c0-.13,0-.27,0-.41V51.94l.61,0v7.93c0,.18,0,.37,0,.55a.88.88,0,0,0,1,.89A4.73,4.73,0,0,0,241.92,61.19Z"/><path class="cls-3" d="M180.86,61.16c-.1.25-.12.46-.2.49a1.91,1.91,0,0,1-1.41.07,1,1,0,0,1-.65-.75,3.18,3.18,0,0,1-.07-.62q0-4,0-7.94a4.21,4.21,0,0,1,0-.46l.57-.05v7.85c0,.19,0,.37,0,.55a.92.92,0,0,0,1.13,1Z"/><path class="cls-3" d="M89.93,61.62c-.49.17-.62,0-.61-.36,0-.69,0-1.38,0-2.07V54.87c.36-.14.58-.12.58.26A6.89,6.89,0,0,0,90,56.21a3.26,3.26,0,0,1,2.55-1.49l.06.49c-.29.08-.56.13-.81.21A2.55,2.55,0,0,0,89.93,58v3.66Z"/><path class="cls-3" d="M109.42,61.67a9.41,9.41,0,0,1-1.12.13,1.08,1.08,0,0,1-1.14-1.06c0-.11,0-.23,0-.34q0-3.94,0-7.89c0-.18,0-.36,0-.54.32-.14.52-.09.54.27s0,.41,0,.62v7.2c0,1,.28,1.27,1.29,1.16C109.35,61.19,109.41,61.31,109.42,61.67Z"/><path class="cls-3" d="M172.71,54.78l.56,0v6.76c-.48.14-.52.12-.56-.23,0-.16,0-.33,0-.49V54.78Z"/><path class="cls-3" d="M223.72,54.82h.47a3.85,3.85,0,0,1,.06.42v5.94c0,.47,0,.47-.49.47A61.65,61.65,0,0,1,223.72,54.82Z"/><path class="cls-3" d="M173.26,53c-.59.06-.63,0-.48-1l.48,0Z"/><path class="cls-3" d="M223.69,53.05V51.93h.59c-.05.38-.09.73-.16,1.07C224.11,53,223.88,53,223.69,53.05Z"/><path class="cls-3" d="M154.82,53c.66-1.09.66-1.09,1.3-1.06a3.61,3.61,0,0,1-.94,1.14C155.12,53.1,155,53,154.82,53Z"/></g></g></svg>